  0
SECTION
  2
ENTITIES
  0
3DFACE
  8
0
 10
0
 20
0
 30
0
 11
0
 21
10
 31
0
 12
10
 22
10
 32
0
 13
10
 23
0
 33
0
  0
3DFACE
  8
0
 10
10
 20
0
 30
10
 11
10
 21
10
 31
10
 12
0
 22
10
 32
10
 13
0
 23
0
 33
10
  0
3DFACE
  8
0
 10
10
 20
0
 30
0
 11
10
 21
0
 31
10
 12
0
 22
0
 32
10
 13
0
 23
0
 33
0
  0
3DFACE
  8
0
 10
0
 20
10
 30
0
 11
0
 21
10
 31
10
 12
10
 22
10
 32
10
 13
10
 23
10
 33
0
  0
3DFACE
  8
0
 10
10
 20
10
 30
0
 11
10
 21
10
 31
10
 12
10
 22
0
 32
10
 13
10
 23
0
 33
0
  0
3DFACE
  8
0
 10
0
 20
0
 30
0
 11
0
 21
0
 31
10
 12
0
 22
10
 32
10
 13
0
 23
10
 33
0
 0
ENDSEC
 0
EOF